# Blender v2.82 (sub 7) OBJ File: ''
# www.blender.org
mtllib decal.mtl
o Plane
v 5.797192 0.013555 -6.560979
v 5.994089 0.013555 -6.560979
v 5.797192 0.013555 -6.757875
v 5.994089 0.013555 -6.757875
v 6.352192 0.013555 -6.751420
v 6.383807 0.013555 -6.629489
v 6.474123 0.013555 -6.783035
v 6.505737 0.013555 -6.661104
v 7.045443 0.013555 -6.324096
v 6.941119 0.013555 -6.133578
v 7.235960 0.013555 -6.219772
v 7.131637 0.013555 -6.029255
v 6.845569 0.013555 -6.947476
v 6.603167 0.013555 -6.966457
v 6.826589 0.013555 -6.705075
v 6.584187 0.013555 -6.724055
v -6.562088 0.013555 -6.893639
v -6.687667 0.013555 -6.903472
v -6.571921 0.013555 -6.768060
v -6.697500 0.013555 -6.777893
v -6.658287 0.013555 -7.628716
v -6.802299 0.013555 -7.427720
v -6.457292 0.013555 -7.484704
v -6.601301 0.013555 -7.283708
v -5.878114 0.013555 -6.285458
v -6.040481 0.013555 -6.058845
v -5.651504 0.013555 -6.123092
v -5.813867 0.013555 -5.896478
v -6.438709 0.013555 -7.126112
v -6.416383 0.013555 -7.002142
v -6.314740 0.013555 -7.148438
v -6.292414 0.013555 -7.024469
v -3.798016 0.013555 -8.202160
v -3.865546 0.013555 -8.095827
v -3.691685 0.013555 -8.134628
v -3.759215 0.013555 -8.028297
v -3.227752 0.013555 -7.555307
v -3.548152 0.013555 -7.575097
v -3.247545 0.013555 -7.234908
v -3.567942 0.013555 -7.254697
v -2.511659 0.013555 -8.601929
v -2.745117 0.013555 -8.353407
v -2.263138 0.013555 -8.368468
v -2.496594 0.013555 -8.119947
v -2.776133 0.013555 -7.710491
v -2.681463 0.013555 -7.793583
v -2.859225 0.013555 -7.805161
v -2.764555 0.013555 -7.888254
v 15.140118 0.013554 -11.745283
v 15.234788 0.013554 -11.828375
v 15.057026 0.013554 -11.839953
v 15.151696 0.013554 -11.923046
v 15.736394 0.013554 -12.468274
v 15.634403 0.013554 -12.614111
v 15.590557 0.013554 -12.366283
v 15.488566 0.013554 -12.512120
v 15.552700 0.013554 -12.052480
v 15.678508 0.013554 -12.058727
v 15.546453 0.013554 -12.178287
v 15.672261 0.013554 -12.184535
v 15.954113 0.013554 -11.662597
v 16.116253 0.013554 -11.570540
v 16.046171 0.013554 -11.824735
v 16.208311 0.013554 -11.732678
v 15.680303 0.013554 -11.306902
v 15.609371 0.013554 -11.118691
v 15.868512 0.013554 -11.235968
v 15.797581 0.013554 -11.047758
v 0.405348 0.013554 -11.854995
v 0.281608 0.013554 -11.831432
v 0.428910 0.013554 -11.731255
v 0.305171 0.013554 -11.707691
v -2.551214 0.013554 -11.971365
v -2.704104 0.013554 -11.744212
v -2.324062 0.013554 -11.818473
v -2.476952 0.013554 -11.591321
v 1.772350 0.013554 -15.051229
v 1.997883 0.013554 -14.868492
v 1.955088 0.013554 -15.276760
v 2.180620 0.013554 -15.094025
v 7.119983 0.013554 -12.793007
v 7.130060 0.013554 -12.505583
v 7.407407 0.013554 -12.803082
v 7.417484 0.013554 -12.515659
v 7.336122 0.013555 -4.890584
v 7.287226 0.013555 -4.726528
v 7.500178 0.013555 -4.841687
v 7.451282 0.013555 -4.677632
v 7.029487 0.013556 -3.920011
v 7.113023 0.013556 -3.802584
v 7.146914 0.013556 -4.003547
v 7.230449 0.013556 -3.886120
v 10.124351 0.013555 -9.626317
v 10.134428 0.013555 -9.338893
v 10.411775 0.013555 -9.636393
v 10.421852 0.013555 -9.348969
vt 1.000000 0.000000
vt 0.000000 1.000000
vt 0.000000 0.000000
vt 0.000000 0.000000
vt 1.000000 1.000000
vt 0.000000 1.000000
vt 1.000000 0.000000
vt 0.000000 1.000000
vt 0.000000 0.000000
vt 0.000000 0.000000
vt 1.000000 1.000000
vt 0.000000 1.000000
vt 1.000000 0.000000
vt 0.000000 1.000000
vt 0.000000 0.000000
vt 1.000000 0.000000
vt 0.000000 1.000000
vt 0.000000 0.000000
vt 1.000000 0.000000
vt 0.000000 1.000000
vt 0.000000 0.000000
vt 1.000000 0.000000
vt 0.000000 1.000000
vt 0.000000 0.000000
vt 1.000000 0.000000
vt 0.000000 1.000000
vt 0.000000 0.000000
vt 1.000000 0.000000
vt 0.000000 1.000000
vt 0.000000 0.000000
vt 1.000000 0.000000
vt 0.000000 1.000000
vt 0.000000 0.000000
vt 1.000000 0.000000
vt 0.000000 1.000000
vt 0.000000 0.000000
vt 1.000000 0.000000
vt 0.000000 1.000000
vt 0.000000 0.000000
vt 1.000000 0.000000
vt 0.000000 1.000000
vt 0.000000 0.000000
vt 1.000000 0.000000
vt 0.000000 1.000000
vt 0.000000 0.000000
vt 1.000000 0.000000
vt 0.000000 1.000000
vt 0.000000 0.000000
vt 1.000000 0.000000
vt 0.000000 1.000000
vt 0.000000 0.000000
vt 1.000000 0.000000
vt 0.000000 1.000000
vt 0.000000 0.000000
vt 1.000000 0.000000
vt 0.000000 1.000000
vt 0.000000 0.000000
vt 1.000000 0.000000
vt 0.000000 1.000000
vt 0.000000 0.000000
vt 1.000000 0.000000
vt 0.000000 1.000000
vt 0.000000 0.000000
vt 0.000000 0.000000
vt 1.000000 1.000000
vt 0.000000 1.000000
vt 0.000000 0.000000
vt 1.000000 1.000000
vt 0.000000 1.000000
vt 1.000000 0.000000
vt 0.000000 1.000000
vt 0.000000 0.000000
vt 1.000000 1.000000
vt 1.000000 0.000000
vt 1.000000 1.000000
vt 1.000000 0.000000
vt 1.000000 1.000000
vt 1.000000 1.000000
vt 1.000000 1.000000
vt 1.000000 1.000000
vt 1.000000 1.000000
vt 1.000000 1.000000
vt 1.000000 1.000000
vt 1.000000 1.000000
vt 1.000000 1.000000
vt 1.000000 1.000000
vt 1.000000 1.000000
vt 1.000000 1.000000
vt 1.000000 1.000000
vt 1.000000 1.000000
vt 1.000000 1.000000
vt 1.000000 1.000000
vt 1.000000 1.000000
vt 1.000000 0.000000
vt 1.000000 0.000000
vt 1.000000 1.000000
vn 0.0000 1.0000 -0.0000
usemtl Material.008
s 1
f 2/1/1 3/2/1 1/3/1
f 5/4/1 8/5/1 7/6/1
f 10/7/1 11/8/1 9/9/1
f 13/10/1 16/11/1 15/12/1
f 18/13/1 19/14/1 17/15/1
f 22/16/1 23/17/1 21/18/1
f 26/19/1 27/20/1 25/21/1
f 30/22/1 31/23/1 29/24/1
f 34/25/1 35/26/1 33/27/1
f 38/28/1 39/29/1 37/30/1
f 42/31/1 43/32/1 41/33/1
f 46/34/1 47/35/1 45/36/1
f 50/37/1 51/38/1 49/39/1
f 54/40/1 55/41/1 53/42/1
f 58/43/1 59/44/1 57/45/1
f 62/46/1 63/47/1 61/48/1
f 66/49/1 67/50/1 65/51/1
f 70/52/1 71/53/1 69/54/1
f 74/55/1 75/56/1 73/57/1
f 78/58/1 79/59/1 77/60/1
f 82/61/1 83/62/1 81/63/1
f 85/64/1 88/65/1 87/66/1
f 89/67/1 92/68/1 91/69/1
f 94/70/1 95/71/1 93/72/1
f 2/1/1 4/73/1 3/2/1
f 5/4/1 6/74/1 8/5/1
f 10/7/1 12/75/1 11/8/1
f 13/10/1 14/76/1 16/11/1
f 18/13/1 20/77/1 19/14/1
f 22/16/1 24/78/1 23/17/1
f 26/19/1 28/79/1 27/20/1
f 30/22/1 32/80/1 31/23/1
f 34/25/1 36/81/1 35/26/1
f 38/28/1 40/82/1 39/29/1
f 42/31/1 44/83/1 43/32/1
f 46/34/1 48/84/1 47/35/1
f 50/37/1 52/85/1 51/38/1
f 54/40/1 56/86/1 55/41/1
f 58/43/1 60/87/1 59/44/1
f 62/46/1 64/88/1 63/47/1
f 66/49/1 68/89/1 67/50/1
f 70/52/1 72/90/1 71/53/1
f 74/55/1 76/91/1 75/56/1
f 78/58/1 80/92/1 79/59/1
f 82/61/1 84/93/1 83/62/1
f 85/64/1 86/94/1 88/65/1
f 89/67/1 90/95/1 92/68/1
f 94/70/1 96/96/1 95/71/1
