# Blender v2.82 (sub 7) OBJ File: ''
# www.blender.org
mtllib floorCabin.mtl
o Cube.012_Cube.013
v 4.447414 -0.122711 3.496914
v 4.447414 -0.122711 -3.027163
v -4.768353 -0.122711 3.496914
v -4.768353 -0.122711 -3.027163
v -4.768353 0.350277 3.496914
v -4.768353 0.350277 -3.027163
v 4.447414 0.350277 -3.027163
v 4.447414 0.350277 3.496914
v 4.034737 -0.122711 3.119931
v 4.034737 -0.122711 -2.650179
v -4.355680 -0.122711 -2.650179
v -4.355680 -0.122711 3.119931
v 4.034737 -1.879833 3.119931
v 4.034737 -1.879833 -2.650179
v -4.355680 -1.879833 -2.650179
v -4.355680 -1.879833 3.119931
vt 1.000000 0.878906
vt 0.000000 1.000000
vt 0.000000 0.878906
vt 1.000000 0.878906
vt 0.000000 1.000000
vt 0.000000 0.878906
vt 1.001953 0.880859
vt 0.058594 1.000000
vt 0.000000 0.880859
vt 1.000000 0.878906
vt 0.000000 1.000000
vt 0.000000 0.878906
vt 0.000000 1.000000
vt 1.000000 0.878906
vt 1.000000 1.000000
vt 0.000000 0.884766
vt 1.000000 0.580078
vt 1.000000 0.884766
vt 1.001953 0.880859
vt 0.058594 1.000000
vt 0.000000 0.880859
vt 1.001953 0.880859
vt 0.058594 1.000000
vt 0.000000 0.880859
vt 0.943359 1.001953
vt 1.001953 0.882812
vt 1.000000 0.884766
vt 0.000000 0.580078
vt 0.000000 0.884766
vt 1.000000 0.580078
vt 0.000000 0.580078
vt 1.000000 1.000000
vt 1.000000 1.000000
vt 0.943359 1.001953
vt 1.000000 1.000000
vt 0.000000 0.878906
vt 0.943359 1.001953
vt 3.472656 3.472656
vt -2.472656 -2.472656
vt 3.472656 -2.472656
vt -2.472656 3.472656
vn 0.5774 0.5774 -0.5774
vn -0.5774 -0.5774 -0.5774
vn -0.5774 0.5774 -0.5774
vn -0.5774 -0.5774 0.5774
vn -0.5774 0.5774 0.5774
vn 0.3015 0.9045 -0.3015
vn 0.5774 0.5774 0.5774
vn 0.5774 -0.5774 -0.5774
vn 0.5774 -0.5774 0.5774
vn 0.3015 0.9045 0.3015
vn -0.7071 0.0000 0.7071
vn -0.3015 0.9045 0.3015
vn -0.3015 0.9045 -0.3015
vn 0.7071 0.0000 0.7071
vn 0.7071 -0.0000 -0.7071
vn -0.7071 -0.0000 -0.7071
usemtl Material.012
s 1
f 3/1/1 8/2/2 1/3/3
f 1/4/3 7/5/4 2/6/5
f 1/7/3 12/8/6 3/9/1
f 4/10/7 5/11/8 3/12/1
f 2/13/5 6/14/9 4/15/7
f 11/16/10 14/17/11 10/18/12
f 2/19/5 9/20/13 1/21/3
f 4/22/7 10/23/12 2/24/5
f 3/9/1 11/25/10 4/26/7
f 12/27/6 15/28/14 11/16/10
f 9/29/13 16/30/15 12/27/6
f 10/18/12 13/31/16 9/29/13
f 3/1/1 5/32/8 8/2/2
f 1/4/3 8/33/2 7/5/4
f 1/7/3 9/34/13 12/8/6
f 4/10/7 6/35/9 5/11/8
f 2/13/5 7/36/4 6/14/9
f 11/16/10 15/28/14 14/17/11
f 2/19/5 10/37/12 9/20/13
f 4/22/7 11/25/10 10/23/12
f 3/9/1 12/8/6 11/25/10
f 12/27/6 16/30/15 15/28/14
f 9/29/13 13/31/16 16/30/15
f 10/18/12 14/17/11 13/31/16
usemtl Material.019
f 6/38/9 8/39/2 5/40/8
f 6/38/9 7/41/4 8/39/2
