# Blender v2.82 (sub 7) OBJ File: ''
# www.blender.org
mtllib flower.mtl
o Plane.005_Plane.004
v 15.726786 -0.094576 -12.165666
v 16.190823 -0.094576 -12.165666
v 15.726786 0.369460 -12.165666
v 16.190823 0.369460 -12.165666
v 15.958805 -0.094576 -11.933645
v 15.958805 -0.094576 -12.397682
v 15.958805 0.369460 -11.933645
v 15.958805 0.369460 -12.397682
v 16.124887 -0.094576 -12.003650
v 15.792721 -0.094576 -12.327680
v 16.124887 0.369460 -12.003650
v 15.792721 0.369460 -12.327680
v 15.810333 -0.094576 -11.987371
v 16.107275 -0.094576 -12.343956
v 15.810333 0.369460 -11.987371
v 16.107275 0.369460 -12.343956
v 6.187286 -0.094575 -5.731498
v 6.651322 -0.094575 -5.731498
v 6.187286 0.369461 -5.731498
v 6.651322 0.369461 -5.731498
v 6.419304 -0.094575 -5.499478
v 6.419304 -0.094575 -5.963514
v 6.419304 0.369461 -5.499478
v 6.419304 0.369461 -5.963514
v 6.585388 -0.094575 -5.569480
v 6.253221 -0.094575 -5.893512
v 6.585388 0.369461 -5.569480
v 6.253221 0.369461 -5.893512
v 6.270833 -0.094575 -5.553204
v 6.567776 -0.094575 -5.909788
v 6.270833 0.369461 -5.553204
v 6.567776 0.369461 -5.909788
v 16.294439 -0.094576 -11.413169
v 16.758476 -0.094576 -11.413169
v 16.294439 0.369460 -11.413169
v 16.758476 0.369460 -11.413169
v 16.526459 -0.094576 -11.181149
v 16.526459 -0.094576 -11.645185
v 16.526459 0.369460 -11.181149
v 16.526459 0.369460 -11.645185
v 16.692541 -0.094576 -11.251153
v 16.360374 -0.094576 -11.575183
v 16.692541 0.369460 -11.251153
v 16.360374 0.369460 -11.575183
v 16.377987 -0.094576 -11.234875
v 16.674929 -0.094576 -11.591459
v 16.377987 0.369460 -11.234875
v 16.674929 0.369460 -11.591459
vt 1.000000 0.000000
vt 0.000000 1.000000
vt 0.000000 0.000000
vt 1.000000 0.000000
vt 0.000000 1.000000
vt 0.000000 0.000000
vt 1.000000 0.000000
vt 0.000000 1.000000
vt 0.000000 0.000000
vt 1.000000 0.000000
vt 0.000000 1.000000
vt 0.000000 0.000000
vt 1.000000 0.000000
vt 0.000000 1.000000
vt 0.000000 0.000000
vt 1.000000 0.000000
vt 0.000000 1.000000
vt 0.000000 0.000000
vt 1.000000 0.000000
vt 0.000000 1.000000
vt 0.000000 0.000000
vt 1.000000 0.000000
vt 0.000000 1.000000
vt 0.000000 0.000000
vt 1.000000 0.000000
vt 0.000000 1.000000
vt 0.000000 0.000000
vt 1.000000 0.000000
vt 0.000000 1.000000
vt 0.000000 0.000000
vt 1.000000 0.000000
vt 0.000000 1.000000
vt 0.000000 0.000000
vt 1.000000 0.000000
vt 0.000000 1.000000
vt 0.000000 0.000000
vt 1.000000 1.000000
vt 1.000000 1.000000
vt 1.000000 1.000000
vt 1.000000 1.000000
vt 1.000000 1.000000
vt 1.000000 1.000000
vt 1.000000 1.000000
vt 1.000000 1.000000
vt 1.000000 1.000000
vt 1.000000 1.000000
vt 1.000000 1.000000
vt 1.000000 1.000000
vn 0.0000 0.0000 1.0000
vn 1.0000 0.0000 0.0000
vn 0.6983 0.0000 -0.7158
vn 0.7684 0.0000 0.6399
usemtl Material.017
s 1
f 2/1/1 3/2/1 1/3/1
f 6/4/2 7/5/2 5/6/2
f 10/7/3 11/8/3 9/9/3
f 14/10/4 15/11/4 13/12/4
f 18/13/1 19/14/1 17/15/1
f 22/16/2 23/17/2 21/18/2
f 26/19/3 27/20/3 25/21/3
f 30/22/4 31/23/4 29/24/4
f 34/25/1 35/26/1 33/27/1
f 38/28/2 39/29/2 37/30/2
f 42/31/3 43/32/3 41/33/3
f 46/34/4 47/35/4 45/36/4
f 2/1/1 4/37/1 3/2/1
f 6/4/2 8/38/2 7/5/2
f 10/7/3 12/39/3 11/8/3
f 14/10/4 16/40/4 15/11/4
f 18/13/1 20/41/1 19/14/1
f 22/16/2 24/42/2 23/17/2
f 26/19/3 28/43/3 27/20/3
f 30/22/4 32/44/4 31/23/4
f 34/25/1 36/45/1 35/26/1
f 38/28/2 40/46/2 39/29/2
f 42/31/3 44/47/3 43/32/3
f 46/34/4 48/48/4 47/35/4
