# Blender v2.82 (sub 7) OBJ File: ''
# www.blender.org
mtllib rock1.mtl
o Icosphere
v 15.771427 0.732854 -13.430366
v 13.932101 1.043862 -14.153757
v 13.813942 1.023934 -16.124611
v 15.800364 0.732854 -16.869303
v 16.981234 0.732846 -15.095507
v 15.462016 2.428286 -15.098312
v 17.092089 -0.142576 -14.490616
v 17.092089 -0.142576 -15.700397
v 15.230399 -0.142576 -13.138012
v 16.380985 -0.142576 -13.511861
v 13.368709 -0.142576 -14.490616
v 14.079812 -0.142576 -13.511861
v 14.079812 -0.142576 -16.679152
v 13.368709 -0.142576 -15.700397
v 16.380985 -0.142576 -16.679152
v 15.230399 -0.142576 -17.053001
v 16.204334 1.928269 -14.357683
v 14.715835 0.886552 -13.511870
v 13.565261 1.197558 -15.095507
v 14.744772 1.177633 -16.787798
v 16.269533 1.089700 -16.451677
v 15.548405 2.120830 -14.116769
v 16.378920 2.070502 -15.095507
v 14.397832 1.808005 -14.513058
v 14.397832 2.009021 -15.700395
v 15.803038 2.193516 -15.680975
vt 0.803850 0.337379
vt 1.252902 0.615064
vt 0.679612 1.110576
vt -0.286602 0.510631
vt 0.215814 0.422999
vt 0.038665 1.091762
vt 1.075742 0.499530
vt 0.502461 0.596250
vt 0.839424 1.196683
vt 0.819970 0.337379
vt 0.231933 0.585151
vt 0.821460 1.147701
vt 0.502461 0.337374
vt 1.047686 0.536166
vt 0.502461 1.082539
vt 1.201475 0.594147
vt 0.821460 1.199899
vt 0.502461 0.594147
vt 1.108213 1.147701
vt 1.378630 0.536166
vt 0.038665 0.931111
vt 0.038665 1.196683
vt -0.286602 0.499530
vt 0.038665 0.257183
vt 0.165497 1.091762
vt -0.070820 0.510631
vt 0.679612 0.048923
vt 1.252902 0.048921
vt -0.042765 0.615064
vt 0.839426 -0.150296
vt 1.384659 -0.150296
vt 1.143416 -0.150296
vt 0.502461 -0.150296
vt -0.138494 -0.150296
vt 0.839426 -0.150296
vt 0.165496 -0.150296
vt -0.138494 -0.150296
vt 0.502461 -0.150296
vt 1.143416 -0.150296
vt -0.379738 -0.150296
vt 0.165496 -0.150296
vt 1.384659 -0.150296
vt -0.379738 -0.150296
vn 0.2941 0.3442 0.8916
vn 0.6164 0.6169 0.4893
vn 0.0457 0.7824 0.6211
vn -0.6866 0.4485 0.5722
vn -0.2964 0.4173 0.8591
vn -0.5222 0.7503 0.4054
vn -0.7606 0.3779 -0.5280
vn -0.8772 0.4769 0.0556
vn -0.4696 0.8285 -0.3052
vn 0.2842 0.3096 -0.9074
vn -0.2255 0.4719 -0.8523
vn 0.2707 0.8214 -0.5020
vn 0.9416 0.3367 -0.0078
vn 0.5995 0.4552 -0.6583
vn 0.7069 0.7063 -0.0387
vn -0.0211 0.9998 0.0061
vn 0.9181 0.2391 -0.3161
vn 0.6213 0.1313 -0.7725
vn -0.0190 0.0922 -0.9956
vn -0.5868 0.1315 -0.7990
vn -0.9427 0.1617 -0.2917
vn -0.9221 0.2170 0.3203
vn -0.5744 0.2481 0.7801
vn -0.0155 0.2217 0.9750
vn 0.6027 0.2621 0.7537
vn 0.9028 0.2633 0.3402
usemtl Material.016
s 1
f 1/1/1 17/2/2 22/3/3
f 2/4/4 18/5/5 24/6/6
f 3/7/7 19/8/8 25/9/9
f 4/10/10 20/11/11 26/12/12
f 5/13/13 21/14/14 23/15/15
f 23/16/15 26/17/12 6/18/16
f 23/15/15 21/14/14 26/19/12
f 21/20/14 4/10/10 26/12/12
f 26/17/12 25/21/9 6/18/16
f 26/12/12 20/11/11 25/22/9
f 20/11/11 3/23/7 25/22/9
f 25/21/9 24/24/6 6/18/16
f 25/9/9 19/8/8 24/25/6
f 19/8/8 2/26/4 24/25/6
f 24/24/6 22/27/3 6/18/16
f 24/6/6 18/5/5 22/3/3
f 18/5/5 1/1/1 22/3/3
f 22/27/3 23/16/15 6/18/16
f 22/27/3 17/28/2 23/16/15
f 17/29/2 5/13/13 23/15/15
f 8/30/17 21/14/14 5/13/13
f 8/30/17 15/31/18 21/14/14
f 15/32/18 4/10/10 21/20/14
f 16/33/19 20/11/11 4/10/10
f 16/33/19 13/34/20 20/11/11
f 13/34/20 3/23/7 20/11/11
f 14/35/21 19/8/8 3/7/7
f 14/35/21 11/36/22 19/8/8
f 11/36/22 2/26/4 19/8/8
f 12/37/23 18/5/5 2/4/4
f 12/37/23 9/38/24 18/5/5
f 9/38/24 1/1/1 18/5/5
f 10/39/25 17/2/2 1/1/1
f 10/40/25 7/41/26 17/29/2
f 7/41/26 5/13/13 17/29/2
f 15/32/18 16/33/19 4/10/10
f 13/42/20 14/35/21 3/7/7
f 11/36/22 12/43/23 2/26/4
f 9/38/24 10/39/25 1/1/1
f 7/41/26 8/30/17 5/13/13
