# Blender v2.82 (sub 7) OBJ File: ''
# www.blender.org
mtllib weet.mtl
o Cylinder.005_Cylinder.007
v 0.651384 0.760236 -7.630165
v 2.504873 0.440298 -7.690814
v 0.659169 0.865017 -7.613008
v 2.536348 0.544990 -7.660296
v 0.671809 0.920487 -7.585148
v 2.504312 0.600378 -7.629766
v 0.688820 0.969107 -7.547655
v 2.542196 0.648926 -7.588678
v 0.709548 1.009008 -7.501968
v 2.497265 0.688768 -7.538613
v 0.733196 1.011214 -7.449845
v 2.499233 0.718374 -7.481495
v 0.758856 1.048202 -7.393288
v 2.501368 0.736605 -7.419518
v 0.785542 1.063081 -7.334471
v 2.503588 0.742760 -7.355063
v 0.812227 1.056916 -7.275653
v 2.505808 0.719978 -7.290609
v 0.837887 1.024563 -7.219096
v 2.507943 0.718374 -7.228632
v 0.861536 1.009008 -7.166973
v 2.556565 0.688768 -7.171514
v 0.879760 0.969107 -7.124012
v 2.521821 0.648926 -7.121449
v 0.899275 0.920487 -7.083793
v 2.556324 0.600378 -7.080361
v 0.911915 0.865017 -7.055932
v 2.530846 0.544989 -7.049831
v 0.919699 0.804827 -7.038776
v 2.523215 0.484889 -7.053603
v 0.912052 0.742234 -7.044168
v 2.531712 0.422388 -7.024683
v 0.919699 0.624227 -7.038776
v 2.531494 0.304474 -7.031030
v -1.064635 0.075040 -6.194721
v -1.061442 0.195828 -6.187682
v -1.064635 0.271884 -6.194721
v -1.089635 0.345017 -6.232486
v -1.089452 0.412417 -6.249420
v -1.110122 0.471494 -6.294978
v -1.135308 0.519977 -6.350489
v -1.164042 0.556003 -6.413823
v -1.195221 0.578188 -6.482543
v -1.227646 0.552407 -6.554011
v -1.260070 0.578188 -6.625478
v -1.291249 0.556003 -6.694199
v -1.319984 0.519977 -6.757532
v -1.345170 0.471494 -6.813045
v -1.344361 0.412417 -6.835222
v -1.363539 0.345017 -6.873231
v -1.390656 0.235887 -6.913301
v -0.348863 0.499825 -7.590622
v -0.341027 0.553208 -7.561257
v -0.318268 0.597018 -7.511095
v -0.292303 0.616272 -7.453866
v -0.382129 0.328245 -7.651851
v -0.264129 0.645396 -7.391769
v -0.234830 0.639593 -7.327190
v -0.205530 0.649619 -7.262611
v -0.177356 0.622741 -7.200513
v -0.103922 0.438921 -7.029906
v -0.151391 0.597018 -7.143284
v -0.129846 0.553208 -7.094443
v -0.109955 0.499825 -7.051956
v -0.087531 0.372836 -7.002529
v -0.089624 0.304111 -7.001589
v -0.087531 0.179972 -7.002529
v -0.364669 0.438921 -7.623311
v 0.058909 2.067820 -6.997492
v 1.514251 1.695411 -6.421741
v 0.048416 2.175334 -6.902261
v 1.504133 1.799089 -6.369376
v 0.031375 2.274419 -6.850337
v 1.487700 1.894639 -6.319304
v 0.008443 2.361267 -6.780459
v 1.465586 1.978388 -6.251919
v -0.019501 2.432541 -6.695312
v 1.438639 2.047119 -6.169810
v -0.051381 2.436482 -6.598170
v 1.407896 2.098192 -6.076134
v -0.085973 2.502553 -6.492764
v 1.374538 2.129642 -5.974487
v -0.121948 2.529130 -6.383144
v 1.339847 2.140261 -5.868779
v -0.157923 2.518116 -6.273525
v 1.305156 2.100960 -5.763071
v -0.192515 2.460326 -6.168118
v 1.271797 2.098192 -5.661425
v -0.224396 2.432541 -6.070976
v 1.241054 2.047120 -5.567749
v -0.252339 2.361267 -5.992441
v 1.214108 1.978388 -5.485640
v -0.275272 2.274419 -5.915950
v 1.191993 1.894639 -5.418254
v -0.292312 2.175334 -5.864027
v 1.175561 1.799089 -5.368182
v -0.302806 2.067820 -5.832053
v 1.165441 1.695411 -5.378824
v -0.306349 1.956011 -5.848385
v 1.162025 1.587591 -5.326938
v -0.302806 1.844201 -5.832052
v 1.165441 1.479770 -5.337348
v -1.771053 1.471792 -6.326756
v -1.774723 1.587591 -6.315574
v -1.771053 1.703390 -6.326756
v -1.760185 1.814738 -6.394849
v -1.742537 1.917358 -6.413648
v -1.718786 2.007305 -6.486019
v -1.689846 2.081122 -6.574203
v -1.656828 2.135973 -6.674811
v -1.621002 2.169751 -6.783978
v -1.583743 2.130498 -6.897508
v -1.546485 2.169751 -7.011038
v -1.510658 2.135973 -7.120205
v -1.477641 2.081122 -7.220814
v -1.448700 2.007305 -7.309000
v -1.424950 1.917358 -7.333032
v -1.407301 1.814738 -7.395403
v -1.396433 1.703389 -7.468262
v -2.232627 5.797397 7.669559
v 2.752394 5.797397 7.351528
v -2.232628 7.939990 7.506493
v 2.752394 8.128462 7.619631
v -1.144736 5.797397 7.728824
v -0.078711 5.704564 7.865036
v 0.598478 5.704564 7.506926
v 1.650797 5.797396 7.713663
v 1.650797 8.266859 7.493782
v 0.598479 8.174026 7.506926
v -0.078711 8.174026 7.572790
v -1.144736 8.096311 7.751672
v -2.232627 5.797397 7.079084
v 2.752394 5.797397 7.094967
v -2.195725 7.939223 7.069683
v 2.752394 8.128462 7.087383
v -1.144736 5.797397 7.555344
v -0.078712 5.704565 7.434776
v 0.598478 5.704564 7.223485
v 1.650797 5.797396 7.230680
v 1.650797 8.266859 7.276417
v 0.598479 8.174026 7.342281
v -0.078711 8.174026 7.408146
v -1.144735 8.096311 7.426186
v 1.650796 8.338383 7.358738
v 2.752394 8.228347 7.318131
v 0.598478 8.245550 7.424603
v -2.255691 8.043854 7.290120
v -1.144736 8.167835 7.532421
v -0.078711 8.245550 7.490468
v -2.232627 6.430935 6.921530
v -2.232627 7.395539 6.870562
v 2.752394 7.461795 6.983324
v 2.914943 6.972065 7.118855
v -1.144736 6.510195 7.405704
v -1.144736 7.554060 7.362652
v -0.078711 6.417364 7.319313
v -0.078711 7.461228 7.310436
v 0.598479 6.417363 7.156497
v 0.598479 7.461227 7.196096
v 1.650797 6.510195 7.139339
v 1.650796 7.554060 7.154585
v -2.232627 7.395539 7.726685
v -2.232626 6.430935 7.728565
v 2.902011 6.540456 7.362961
v 2.752394 7.461795 7.591149
v -1.144736 6.510195 7.759655
v -1.144735 7.554060 7.729599
v -0.078711 6.417363 7.828507
v -0.078711 7.461227 7.731092
v 0.598479 6.417363 7.567812
v 0.598479 7.461227 7.567812
v 1.650797 6.510195 7.701255
v 1.650796 7.554060 7.627962
vt 0.512418 1.564437
vt -0.982810 1.486425
vt 0.511711 1.497062
vt -0.960645 1.617169
vt 0.512677 1.631776
vt 0.512361 1.699371
vt -0.959949 1.753438
vt 0.511527 1.767502
vt 0.509575 1.829233
vt 0.508159 1.907599
vt -0.965721 1.824163
vt 0.505593 1.980285
vt -0.975598 1.890330
vt 0.505406 1.908344
vt 1.998971 1.922778
vt 0.505915 1.980111
vt 0.505159 1.832468
vt 1.989633 1.848339
vt 0.504590 1.768538
vt 1.974225 1.784169
vt 0.502336 1.703193
vt 1.967918 1.714101
vt 0.503746 1.633131
vt 1.965439 1.645759
vt 0.503267 1.565964
vt 1.966020 1.577513
vt 0.502620 1.498854
vt 1.968993 1.509906
vt 0.493941 1.431352
vt 1.962264 1.445263
vt 0.501207 1.363182
vt 1.978518 1.372107
vt -0.242484 1.410780
vt -0.242463 1.340799
vt -0.234497 1.480368
vt -0.237512 1.554493
vt -0.228784 1.620374
vt -0.228724 1.692093
vt -0.228495 1.761523
vt -0.231096 1.831178
vt -0.235792 1.905379
vt -0.248736 1.979141
vt 1.250550 1.951410
vt 1.244420 1.897451
vt 1.241695 1.822666
vt 1.241114 1.753793
vt 1.241677 1.682996
vt 1.237627 1.619674
vt 1.241051 1.548558
vt 1.249003 1.474035
vt 1.969683 1.532679
vt 1.986295 1.451007
vt 1.962577 1.607572
vt 1.970993 1.666622
vt 1.970701 1.740085
vt 1.973816 1.816099
vt 1.980681 1.887303
vt 1.995507 1.922534
vt -1.003386 1.978171
vt -0.976990 1.902415
vt -0.967351 1.829889
vt -0.961579 1.754507
vt -0.959784 1.680993
vt -0.961314 1.607618
vt -0.978291 1.543023
vt -0.971613 1.461882
vt -0.978909 1.390208
vt -0.986132 1.318417
vt -0.965992 1.549809
vt 0.511711 1.497062
vt 0.512418 1.564437
vt -0.960645 1.617169
vt 0.512677 1.631776
vt -0.958431 1.685045
vt 0.512361 1.699371
vt -0.959949 1.753438
vt 0.511527 1.767502
vt -0.965721 1.824163
vt 0.509575 1.829233
vt -0.975598 1.890330
vt 0.508159 1.907599
vt -1.002251 1.978598
vt 0.505593 1.980285
vt 0.505406 1.908344
vt 1.998971 1.922778
vt 0.505915 1.980111
vt 0.505159 1.832468
vt 1.989633 1.848339
vt 0.504590 1.768538
vt 1.974225 1.784169
vt 0.502336 1.703193
vt 1.967918 1.714101
vt 0.503746 1.633131
vt 1.965439 1.645759
vt 0.503267 1.565964
vt 1.966020 1.577513
vt 0.502620 1.498854
vt 1.968993 1.509906
vt 0.493941 1.431352
vt 1.962264 1.445263
vt 0.501207 1.363182
vt 1.978518 1.372107
vt -0.978909 1.390208
vt -0.986132 1.318417
vt -0.971613 1.461882
vt -0.978291 1.543023
vt -0.961314 1.607618
vt -0.959784 1.680993
vt -0.961579 1.754507
vt -0.967351 1.829889
vt -0.976990 1.902415
vt -1.003386 1.978171
vt 1.995507 1.922534
vt 1.980681 1.887303
vt 1.973816 1.816099
vt 1.970701 1.740085
vt 1.970993 1.666622
vt 1.962577 1.607572
vt 1.969683 1.532679
vt 1.986295 1.451007
vt 1.179064 0.666667
vt 1.631773 1.000000
vt 1.179064 1.000000
vt -0.179064 0.666667
vt -0.631773 1.000000
vt -0.631773 0.666667
vt 0.273645 1.000000
vt -0.179064 1.000000
vt 0.726355 0.666667
vt 0.273645 0.666667
vt 0.726355 1.000000
vt 1.179064 0.666667
vt 1.631773 1.000000
vt 1.179064 1.000000
vt -0.179064 0.666667
vt -0.631773 1.000000
vt -0.631773 0.666667
vt 0.273645 1.000000
vt -0.179064 1.000000
vt 0.273645 0.666667
vt 0.726355 1.000000
vt 0.726355 0.666667
vt 0.149212 0.854511
vt -0.093300 0.997863
vt -0.083675 0.830706
vt 0.382672 0.868353
vt 0.614186 0.916008
vt 0.379929 0.916008
vt 1.084604 0.882974
vt 0.848444 0.916008
vt 0.851188 0.868353
vt 0.145671 0.916008
vt 0.616930 0.868353
vt 0.853932 0.820699
vt 0.619674 0.820699
vt 0.385416 0.820699
vt 0.152753 0.793014
vt -0.074051 0.663549
vt 1.179064 0.000000
vt 0.726355 0.333333
vt 0.726355 0.000000
vt 1.179064 0.333333
vt 0.273645 0.333333
vt 0.273645 0.000000
vt -0.179064 0.000000
vt -0.179064 0.333333
vt -0.631773 0.000000
vt -0.631773 0.333333
vt 1.631773 0.000000
vt 1.631773 0.666667
vt 1.179064 0.000000
vt 0.726355 0.333333
vt 0.726355 0.000000
vt 1.179064 0.333333
vt 0.273645 0.000000
vt 0.273645 0.333333
vt -0.179064 0.000000
vt -0.179064 0.333333
vt -0.631773 0.333333
vt -0.631773 0.000000
vt 1.631773 0.000000
vt 1.631773 0.666667
vt -0.965992 1.549809
vt -0.958431 1.685045
vt -1.002251 1.978598
vt 1.983145 1.305208
vt -0.982810 1.486425
vt 1.983145 1.305208
vt 1.076913 1.016550
vt 1.092294 0.749398
vt 1.631773 0.333333
vt 1.631773 0.333333
vn -0.0640 0.3447 -0.9365
vn -0.0206 0.0683 -0.9974
vn -0.0038 -0.0430 -0.9991
vn 0.0754 0.5544 -0.8288
vn -0.0853 0.5595 -0.8244
vn -0.1014 0.7147 -0.6921
vn 0.1341 0.8501 -0.5093
vn -0.1145 0.9438 -0.3101
vn -0.1017 0.9546 -0.2802
vn -0.1221 0.9332 -0.3381
vn 0.1508 0.9128 -0.3796
vn -0.1021 0.9944 -0.0273
vn 0.1734 0.9652 -0.1957
vn -0.0665 0.9451 0.3201
vn 0.1887 0.9752 0.1161
vn -0.0756 0.8997 0.4300
vn 0.1861 0.9675 0.1714
vn -0.0545 0.8683 0.4931
vn 0.1800 0.9617 0.2069
vn -0.0466 0.6818 0.7300
vn 0.1584 0.8258 0.5412
vn -0.0295 0.5553 0.8311
vn 0.1362 0.7082 0.6928
vn -0.0206 0.3742 0.9271
vn 0.1060 0.5559 0.8245
vn 0.0006 0.1265 0.9920
vn 0.0452 0.2158 0.9754
vn 0.0274 -0.0311 0.9991
vn 0.0397 0.2104 0.9768
vn -0.0028 0.1845 0.9828
vn 0.0227 0.1542 0.9878
vn 0.3627 0.0009 0.9319
vn 0.3090 0.2155 0.9263
vn 0.2908 0.2065 0.9342
vn 0.2527 0.3828 0.8886
vn 0.1753 0.5111 0.8414
vn 0.0879 0.7073 0.7015
vn -0.0145 0.8443 0.5356
vn -0.0652 0.9021 0.4265
vn -0.2002 0.9660 0.1634
vn -0.2157 0.9723 0.0895
vn -0.2664 0.9577 -0.1088
vn -0.3092 0.9257 -0.2179
vn -0.3389 0.8547 -0.3933
vn -0.3813 0.6154 -0.6898
vn -0.3799 0.5012 -0.7774
vn -0.3604 0.3809 -0.8515
vn -0.2867 -0.1143 -0.9512
vn -0.5563 0.4616 -0.6910
vn -0.5447 0.1540 -0.8244
vn -0.5722 0.3997 -0.7161
vn -0.5199 0.5709 -0.6354
vn -0.3672 0.8344 -0.4111
vn -0.2689 0.9233 -0.2741
vn -0.0222 0.9972 0.0712
vn -0.0861 0.9963 -0.0077
vn -0.0298 0.9984 0.0487
vn 0.1992 0.9219 0.3324
vn 0.3121 0.8274 0.4669
vn 0.4139 0.7015 0.5802
vn 0.5567 0.3979 0.7292
vn 0.5616 0.3822 0.7339
vn 0.5911 0.3022 0.7479
vn 0.6385 0.0156 0.7695
vn 0.5758 0.1470 0.8042
vn 0.4175 0.4631 -0.7818
vn 0.3022 0.3780 -0.8751
vn 0.2807 0.5617 -0.7782
vn 0.4089 0.5506 -0.7278
vn 0.2786 0.5736 -0.7703
vn 0.3991 0.6979 -0.5947
vn 0.2402 0.7245 -0.6460
vn 0.3746 0.8154 -0.4414
vn 0.1248 0.9394 -0.3192
vn 0.3220 0.9069 -0.2717
vn 0.1074 0.9577 -0.2669
vn 0.2734 0.9553 -0.1124
vn 0.1220 0.9337 -0.3367
vn 0.1950 0.9629 0.1865
vn 0.0271 0.9976 -0.0636
vn -0.0769 0.9603 0.2681
vn -0.1041 0.9319 0.3475
vn 0.1682 0.9547 0.2454
vn -0.1387 0.8886 0.4373
vn 0.1349 0.9424 0.3060
vn -0.2180 0.7245 0.6539
vn 0.0161 0.8179 0.5751
vn -0.2528 0.5947 0.7631
vn -0.0607 0.7011 0.7105
vn -0.2945 0.4025 0.8668
vn -0.1361 0.5522 0.8226
vn -0.3182 0.1178 0.9407
vn -0.2552 0.1930 0.9474
vn -0.3115 -0.0106 0.9502
vn -0.2615 0.2092 0.9423
vn -0.3201 0.0097 0.9473
vn -0.2947 0.1254 0.9473
vn -0.3097 -0.0100 0.9508
vn -0.2283 -0.2556 0.9394
vn -0.3607 0.2862 0.8877
vn -0.3879 0.3882 0.8360
vn -0.3916 0.4202 0.8186
vn -0.3749 0.7018 0.6057
vn -0.3509 0.8195 0.4530
vn -0.3066 0.9089 0.2828
vn -0.2134 0.9741 -0.0752
vn -0.2168 0.9730 -0.0789
vn -0.1918 0.9797 -0.0579
vn -0.0593 0.9136 -0.4023
vn 0.0071 0.8220 -0.5694
vn 0.1470 0.5534 -0.8198
vn 0.1890 0.4316 -0.8820
vn 0.1365 0.5469 -0.8260
vn 0.2919 0.1329 -0.9472
vn -0.0255 0.1005 0.9946
vn -0.1231 -0.6106 0.7823
vn -0.0913 -0.9001 0.4259
vn -0.0185 0.0513 0.9985
vn 0.1416 -0.8672 0.4775
vn -0.0365 0.1819 0.9826
vn 0.1352 -0.8986 0.4174
vn 0.0921 -0.7822 0.6162
vn 0.0610 0.0681 0.9958
vn 0.1260 0.1292 0.9836
vn 0.0580 -0.8608 0.5056
vn 0.1024 -0.0977 0.9899
vn 0.0665 -0.5643 0.8229
vn 0.0682 -0.5209 0.8509
vn -0.1681 -0.0611 0.9839
vn -0.2200 -0.5963 0.7720
vn -0.3945 -0.1042 0.9129
vn 0.0733 -0.4853 0.8713
vn -0.0559 -0.5538 0.8308
vn 0.1015 -0.0662 0.9926
vn 0.0964 -0.4839 0.8698
vn 0.1104 -0.1063 0.9882
vn 0.0808 -0.9922 0.0951
vn 0.1190 -0.8827 0.4545
vn 0.0931 -0.9950 0.0375
vn 0.0342 -0.9993 -0.0128
vn 0.0800 -0.8874 0.4539
vn 0.1266 -0.9440 0.3045
vn -0.0709 -0.9959 0.0560
vn -0.0674 -0.9187 0.3891
vn -0.0001 -0.9934 0.1146
vn 0.0759 -0.5627 0.8232
vn 0.0568 -0.9983 0.0113
vn 0.0575 0.1204 0.9911
vn 0.1197 0.0328 0.9923
vn 0.1313 0.1098 0.9852
vn 0.0490 0.0523 0.9974
vn 0.1692 0.0744 0.9828
vn 0.2108 0.1563 0.9649
vn -0.1362 0.1944 0.9714
vn -0.1706 0.1193 0.9781
vn -0.4045 0.2094 0.8902
vn -0.4111 0.1350 0.9016
vn 0.0577 0.0270 0.9980
vn 0.0714 0.0144 0.9973
vn 0.0773 -0.0025 0.9970
vn 0.1145 -0.0030 0.9934
vn 0.1561 -0.0841 0.9842
vn 0.0556 -0.0021 0.9985
vn 0.1578 0.0188 0.9873
vn 0.1420 0.0612 0.9880
vn -0.0624 -0.0335 0.9975
vn -0.0338 -0.0002 0.9994
vn -0.0366 -0.0382 0.9986
vn -0.0542 -0.0926 0.9942
vn 0.2781 -0.0411 0.9597
vn 0.1063 -0.0639 0.9923
vn 0.0396 0.3696 -0.9283
vn 0.1068 0.7075 -0.6986
vn 0.0020 0.0643 0.9979
vn 0.3674 0.0477 -0.9288
vn -0.3833 -0.2501 0.8891
vn -0.1153 -0.5518 0.8260
vn -0.0340 0.1370 0.9900
vn 0.2617 -0.1305 0.9563
usemtl Material.014
s 1
f 3/1/1 2/2/2 1/3/3
f 6/4/4 3/1/1 5/5/5
f 7/6/6 6/4/4 5/5/5
f 10/7/7 7/6/6 9/8/8
f 11/9/9 10/7/7 9/8/8
f 13/10/10 12/11/11 11/9/9
f 15/12/12 14/13/13 13/10/10
f 17/14/14 16/15/15 15/16/12
f 19/17/16 18/18/17 17/14/14
f 21/19/18 20/20/19 19/17/16
f 23/21/20 22/22/21 21/19/18
f 25/23/22 24/24/23 23/21/20
f 27/25/24 26/26/25 25/23/22
f 29/27/26 28/28/27 27/25/24
f 31/29/28 30/30/29 29/27/26
f 33/31/30 32/32/31 31/29/28
f 33/31/30 66/33/32 67/34/33
f 31/29/28 65/35/34 66/33/32
f 29/27/26 61/36/35 65/35/34
f 27/25/24 64/37/36 61/36/35
f 25/23/22 63/38/37 64/37/36
f 63/38/37 21/19/18 62/39/38
f 62/39/38 19/17/16 60/40/39
f 60/40/39 17/14/14 59/41/40
f 59/41/40 15/16/12 58/42/41
f 58/43/41 13/10/10 57/44/42
f 57/44/42 11/9/9 55/45/43
f 55/45/43 9/8/8 54/46/44
f 54/46/44 7/6/6 53/47/45
f 53/47/45 5/5/5 52/48/46
f 52/48/46 3/1/1 68/49/47
f 68/49/47 1/3/3 56/50/48
f 50/51/49 56/50/48 51/52/50
f 52/48/46 50/51/49 49/53/51
f 53/47/45 49/53/51 48/54/52
f 54/46/44 48/54/52 47/55/53
f 55/45/43 47/55/53 46/56/54
f 57/44/42 46/56/54 45/57/55
f 58/43/41 45/57/55 44/58/56
f 59/41/40 44/59/56 43/60/57
f 60/40/39 43/60/57 42/61/58
f 62/39/38 42/61/58 41/62/59
f 63/38/37 41/62/59 40/63/60
f 64/37/36 40/63/60 39/64/61
f 61/36/35 39/64/61 38/65/62
f 65/35/34 38/65/62 37/66/63
f 66/33/32 37/66/63 36/67/64
f 67/34/33 36/67/64 35/68/65
f 72/69/66 69/70/67 71/71/68
f 74/72/69 71/71/68 73/73/70
f 76/74/71 73/73/70 75/75/72
f 78/76/73 75/75/72 77/77/74
f 80/78/75 77/77/74 79/79/76
f 82/80/77 79/79/76 81/81/78
f 84/82/79 81/81/78 83/83/80
f 85/84/81 84/85/79 83/86/80
f 87/87/82 86/88/83 85/84/81
f 89/89/84 88/90/85 87/87/82
f 91/91/86 90/92/87 89/89/84
f 93/93/88 92/94/89 91/91/86
f 95/95/90 94/96/91 93/93/88
f 97/97/92 96/98/93 95/95/90
f 99/99/94 98/100/95 97/97/92
f 101/101/96 100/102/97 99/99/94
f 101/101/96 104/103/98 103/104/99
f 99/99/94 105/105/100 104/103/98
f 97/97/92 106/106/101 105/105/100
f 95/95/90 107/107/102 106/106/101
f 93/93/88 108/108/103 107/107/102
f 91/91/86 109/109/104 108/108/103
f 89/89/84 110/110/105 109/109/104
f 87/87/82 111/111/106 110/110/105
f 111/111/106 83/86/80 112/112/107
f 112/113/107 81/81/78 113/114/108
f 113/114/108 79/79/76 114/115/109
f 114/115/109 77/77/74 115/116/110
f 115/116/110 75/75/72 116/117/111
f 116/117/111 73/73/70 117/118/112
f 117/118/112 71/71/68 118/119/113
f 118/119/113 69/70/67 119/120/114
f 173/121/115 123/122/116 128/123/117
f 167/124/118 122/125/119 162/126/120
f 167/124/118 130/127/121 131/128/122
f 171/129/123 130/127/121 169/130/124
f 173/121/115 129/131/125 171/129/123
f 161/132/126 135/133/127 140/134/128
f 155/135/129 134/136/130 151/137/131
f 155/135/129 142/138/132 143/139/133
f 157/140/134 141/141/135 142/138/132
f 161/132/126 141/141/135 159/142/136
f 148/143/137 122/144/138 147/145/139
f 149/146/140 129/147/141 130/148/142
f 145/149/143 128/150/144 144/151/145
f 148/143/137 130/148/142 131/152/146
f 146/153/147 128/150/144 129/147/141
f 140/154/128 146/153/147 141/155/135
f 142/156/132 148/143/137 143/157/133
f 140/154/128 145/149/143 144/151/145
f 142/156/132 146/153/147 149/146/140
f 143/157/133 147/145/139 134/158/130
f 139/159/148 158/160/149 138/161/150
f 160/162/151 159/142/136 158/160/149
f 138/161/150 156/163/152 137/164/153
f 156/163/152 159/142/136 157/140/134
f 136/165/154 156/163/152 154/166/155
f 154/166/155 157/140/134 155/135/129
f 132/167/156 154/166/155 150/168/157
f 154/166/155 151/137/131 150/168/157
f 133/169/158 160/162/151 139/159/148
f 160/162/151 152/170/159 161/132/126
f 127/171/160 170/172/161 126/173/162
f 172/174/163 171/129/123 170/172/161
f 125/175/164 170/172/161 168/176/165
f 170/172/161 169/130/124 168/176/165
f 124/177/166 168/176/165 166/178/167
f 166/178/167 169/130/124 167/124/118
f 124/177/166 163/179/168 120/180/169
f 166/178/167 162/126/120 163/179/168
f 121/181/170 172/174/163 127/171/160
f 172/174/163 165/182/171 173/121/115
f 3/1/1 4/183/172 2/2/2
f 6/4/4 4/183/172 3/1/1
f 7/6/6 8/184/173 6/4/4
f 10/7/7 8/184/173 7/6/6
f 11/9/9 12/11/11 10/7/7
f 13/10/10 14/13/13 12/11/11
f 15/12/12 16/185/15 14/13/13
f 17/14/14 18/18/17 16/15/15
f 19/17/16 20/20/19 18/18/17
f 21/19/18 22/22/21 20/20/19
f 23/21/20 24/24/23 22/22/21
f 25/23/22 26/26/25 24/24/23
f 27/25/24 28/28/27 26/26/25
f 29/27/26 30/30/29 28/28/27
f 31/29/28 32/32/31 30/30/29
f 33/31/30 34/186/174 32/32/31
f 33/31/30 31/29/28 66/33/32
f 31/29/28 29/27/26 65/35/34
f 29/27/26 27/25/24 61/36/35
f 27/25/24 25/23/22 64/37/36
f 25/23/22 23/21/20 63/38/37
f 63/38/37 23/21/20 21/19/18
f 62/39/38 21/19/18 19/17/16
f 60/40/39 19/17/16 17/14/14
f 59/41/40 17/14/14 15/16/12
f 58/43/41 15/12/12 13/10/10
f 57/44/42 13/10/10 11/9/9
f 55/45/43 11/9/9 9/8/8
f 54/46/44 9/8/8 7/6/6
f 53/47/45 7/6/6 5/5/5
f 52/48/46 5/5/5 3/1/1
f 68/49/47 3/1/1 1/3/3
f 50/51/49 68/49/47 56/50/48
f 52/48/46 68/49/47 50/51/49
f 53/47/45 52/48/46 49/53/51
f 54/46/44 53/47/45 48/54/52
f 55/45/43 54/46/44 47/55/53
f 57/44/42 55/45/43 46/56/54
f 58/43/41 57/44/42 45/57/55
f 59/41/40 58/42/41 44/59/56
f 60/40/39 59/41/40 43/60/57
f 62/39/38 60/40/39 42/61/58
f 63/38/37 62/39/38 41/62/59
f 64/37/36 63/38/37 40/63/60
f 61/36/35 64/37/36 39/64/61
f 65/35/34 61/36/35 38/65/62
f 66/33/32 65/35/34 37/66/63
f 67/34/33 66/33/32 36/67/64
f 72/69/66 70/187/175 69/70/67
f 74/72/69 72/69/66 71/71/68
f 76/74/71 74/72/69 73/73/70
f 78/76/73 76/74/71 75/75/72
f 80/78/75 78/76/73 77/77/74
f 82/80/77 80/78/75 79/79/76
f 84/82/79 82/80/77 81/81/78
f 85/84/81 86/88/83 84/85/79
f 87/87/82 88/90/85 86/88/83
f 89/89/84 90/92/87 88/90/85
f 91/91/86 92/94/89 90/92/87
f 93/93/88 94/96/91 92/94/89
f 95/95/90 96/98/93 94/96/91
f 97/97/92 98/100/95 96/98/93
f 99/99/94 100/102/97 98/100/95
f 101/101/96 102/188/176 100/102/97
f 101/101/96 99/99/94 104/103/98
f 99/99/94 97/97/92 105/105/100
f 97/97/92 95/95/90 106/106/101
f 95/95/90 93/93/88 107/107/102
f 93/93/88 91/91/86 108/108/103
f 91/91/86 89/89/84 109/109/104
f 89/89/84 87/87/82 110/110/105
f 87/87/82 85/84/81 111/111/106
f 111/111/106 85/84/81 83/86/80
f 112/113/107 83/83/80 81/81/78
f 113/114/108 81/81/78 79/79/76
f 114/115/109 79/79/76 77/77/74
f 115/116/110 77/77/74 75/75/72
f 116/117/111 75/75/72 73/73/70
f 117/118/112 73/73/70 71/71/68
f 118/119/113 71/71/68 69/70/67
f 173/121/115 165/182/171 123/122/116
f 167/124/118 131/128/122 122/125/119
f 167/124/118 169/130/124 130/127/121
f 171/129/123 129/131/125 130/127/121
f 173/121/115 128/123/117 129/131/125
f 161/132/126 152/170/159 135/133/127
f 155/135/129 143/139/133 134/136/130
f 155/135/129 157/140/134 142/138/132
f 157/140/134 159/142/136 141/141/135
f 161/132/126 140/134/128 141/141/135
f 148/143/137 131/152/146 122/144/138
f 149/146/140 146/153/147 129/147/141
f 145/149/143 123/189/177 128/150/144
f 148/143/137 149/146/140 130/148/142
f 146/153/147 144/151/145 128/150/144
f 140/154/128 144/151/145 146/153/147
f 142/156/132 149/146/140 148/143/137
f 140/154/128 135/190/127 145/149/143
f 142/156/132 141/155/135 146/153/147
f 143/157/133 148/143/137 147/145/139
f 139/159/148 160/162/151 158/160/149
f 160/162/151 161/132/126 159/142/136
f 138/161/150 158/160/149 156/163/152
f 156/163/152 158/160/149 159/142/136
f 136/165/154 137/164/153 156/163/152
f 154/166/155 156/163/152 157/140/134
f 132/167/156 136/165/154 154/166/155
f 154/166/155 155/135/129 151/137/131
f 133/169/158 153/191/178 160/162/151
f 160/162/151 153/191/178 152/170/159
f 127/171/160 172/174/163 170/172/161
f 172/174/163 173/121/115 171/129/123
f 125/175/164 126/173/162 170/172/161
f 170/172/161 171/129/123 169/130/124
f 124/177/166 125/175/164 168/176/165
f 166/178/167 168/176/165 169/130/124
f 124/177/166 166/178/167 163/179/168
f 166/178/167 167/124/118 162/126/120
f 121/181/170 164/192/179 172/174/163
f 172/174/163 164/192/179 165/182/171
